<svg width="464" height="172" viewBox="0 0 464 172" fill="none" xmlns="http://www.w3.org/2000/svg">
<path d="M63.3721 33L116.363 33.2314C121.462 33.2537 125.593 37.3631 125.628 42.4477L126 95.8686C126.023 99.1946 121.986 100.87 119.636 98.51L60.7144 39.3279C58.3768 36.98 60.0544 32.9856 63.3721 33Z" fill="#9AEA62"/>
<path d="M76.0112 97.7727V75.7816C76.0112 72.4551 80.0603 70.8076 82.3935 73.1847L102.156 93.3197C104.463 95.6695 102.793 99.6288 99.4963 99.6288H77.8723C76.8444 99.6288 76.0112 98.7978 76.0112 97.7727Z" fill="#9AEA62"/>
<path d="M46 130.719V108.91C46 103.784 50.1663 99.6288 55.3058 99.6288H65.5422C70.6816 99.6288 74.8479 103.784 74.8479 108.91V130.719C74.8479 135.845 70.6816 140 65.5422 140H55.3058C50.1663 140 46 135.845 46 130.719Z" fill="#9AEA62"/>
<path d="M199.808 112.5V63.608H238.636C240.495 63.608 242.172 64.0613 243.668 64.968C245.209 65.8747 246.433 67.0987 247.34 68.64C248.292 70.1813 248.768 71.8587 248.768 73.672V86.32C248.768 88.1333 248.292 89.8107 247.34 91.352C246.433 92.8933 245.209 94.1173 243.668 95.024C242.172 95.9307 240.495 96.384 238.636 96.384L210.348 96.452V112.5H199.808ZM210.348 85.776H238.092V74.148H210.348V85.776ZM291.609 112.5L277.397 95.568H291.201L302.489 108.896V112.5H291.609ZM253.597 112.5V63.608H292.425C294.284 63.608 295.961 64.0613 297.457 64.968C298.998 65.8747 300.222 67.0987 301.129 68.64C302.081 70.1813 302.557 71.8587 302.557 73.672V86.32C302.557 88.1333 302.081 89.8107 301.129 91.352C300.222 92.8933 298.998 94.1173 297.457 95.024C295.961 95.9307 294.284 96.384 292.425 96.384L264.137 96.452V112.5H253.597ZM264.137 85.776H291.881V74.148H264.137V85.776ZM308.01 112.5V63.54H318.414V112.5H308.01ZM334.181 112.5C332.368 112.5 330.691 112.047 329.149 111.14C327.608 110.233 326.384 109.009 325.477 107.468C324.571 105.927 324.117 104.249 324.117 102.436V97.88H334.657V101.892H362.401V93.324H334.181C332.368 93.324 330.691 92.8707 329.149 91.964C327.608 91.0573 326.384 89.856 325.477 88.36C324.571 86.8187 324.117 85.1187 324.117 83.26V73.604C324.117 71.7453 324.571 70.068 325.477 68.572C326.384 67.0307 327.608 65.8067 329.149 64.9C330.691 63.9933 332.368 63.54 334.181 63.54H363.013C364.827 63.54 366.481 63.9933 367.977 64.9C369.519 65.8067 370.743 67.0307 371.649 68.572C372.601 70.068 373.077 71.7453 373.077 73.604V78.16H362.401V74.148H334.657V82.716H363.013C364.827 82.716 366.481 83.1693 367.977 84.076C369.519 84.9827 370.743 86.2067 371.649 87.748C372.601 89.244 373.077 90.9213 373.077 92.78V102.436C373.077 104.249 372.601 105.927 371.649 107.468C370.743 109.009 369.519 110.233 367.977 111.14C366.481 112.047 364.827 112.5 363.013 112.5H334.181ZM380.566 112.5V63.54H391.446L408.038 83.328L424.562 63.54H435.51V112.5H424.902V79.656L408.038 99.784L391.106 79.724V112.5H380.566Z" fill="#9AEA62"/>
</svg>
