<svg width="320" height="320" viewBox="0 0 320 320" fill="none" xmlns="http://www.w3.org/2000/svg">
<rect width="320" height="320" rx="40" fill="#9AEA62"/>
<path d="M111.336 45.0847L225.225 45.5833C236.183 45.6313 245.061 54.4872 245.137 65.4443L245.936 180.566C245.986 187.734 237.309 191.345 232.259 186.259L105.624 58.7214C100.6 53.6615 104.206 45.0535 111.336 45.0847Z" fill="#2E2E2E"/>
<path d="M138.5 184.67V137.279C138.5 130.11 147.202 126.56 152.217 131.683L194.691 175.074C199.648 180.138 196.06 188.67 188.974 188.67H142.5C140.291 188.67 138.5 186.879 138.5 184.67Z" fill="#2E2E2E"/>
<path d="M74 255.67V208.67C74 197.624 82.9543 188.67 94 188.67H116C127.046 188.67 136 197.624 136 208.67V255.67C136 266.716 127.046 275.67 116 275.67H94C82.9543 275.67 74 266.716 74 255.67Z" fill="#2E2E2E"/>
</svg>
